<?xml version="1.0" encoding="UTF-8"?>
<svg version="1.1" xmlns="http://www.w3.org/2000/svg" width="512" height="512">
<path d="M0 0 C1.28755692 -0.00846954 2.57511383 -0.01693909 3.90168762 -0.02566528 C7.40604755 -0.04772269 10.91017127 -0.05081993 14.41459107 -0.04891777 C17.3540316 -0.04879732 20.29342342 -0.0573917 23.23285025 -0.06569529 C30.17577497 -0.08487307 37.1185795 -0.08783399 44.06152344 -0.08105469 C51.19168446 -0.07441989 58.32132739 -0.09726816 65.45138341 -0.13436842 C71.6020858 -0.16519542 77.75262264 -0.17641141 83.9034006 -0.1725316 C87.56415019 -0.17047725 91.22449643 -0.17573707 94.88517189 -0.20042419 C98.97457083 -0.22709597 103.06289525 -0.21286522 107.15234375 -0.1953125 C108.34289368 -0.20857574 109.5334436 -0.22183899 110.7600708 -0.23550415 C122.86987588 -0.1154807 133.2324662 4.03123706 142.77026367 11.41992188 C144.18529175 12.50853516 144.18529175 12.50853516 145.62890625 13.61914062 C148.83763282 16.30673728 150.91774305 19.28951565 153.12963867 22.85742188 C153.70074371 23.77213257 153.70074371 23.77213257 154.28338623 24.70532227 C155.46012993 26.60179228 156.61859822 28.50813253 157.77026367 30.41992188 C158.12290283 31.00515625 158.47554199 31.59039062 158.83886719 32.19335938 C161.26917785 36.2478904 163.64795727 40.33137336 166.02026367 44.41992188 C167.13963743 46.34068515 168.26012529 48.26079589 169.38061523 50.1809082 C170.12642174 51.45917909 170.87186798 52.73766024 171.61694336 54.01635742 C174.81151944 59.49799212 178.03595447 64.96164007 181.27026367 70.41992188 C186.66482653 79.53240519 192.02228014 88.66639602 197.3737793 97.80419922 C201.98990183 105.685634 206.61770619 113.55991946 211.27026367 121.41992188 C216.66436333 130.53268115 222.02227883 139.66639378 227.3737793 148.80419922 C231.98990183 156.685634 236.61770619 164.55991946 241.27026367 172.41992188 C246.66436333 181.53268115 252.02227883 190.66639378 257.3737793 199.80419922 C261.98990183 207.685634 266.61770619 215.55991946 271.27026367 223.41992188 C277.02457876 233.14122691 282.73884286 242.88577885 288.44482422 252.63549805 C291.81500055 258.39206196 295.19360396 264.14306384 298.60229492 269.87695312 C299.19268555 270.87082031 299.78307617 271.8646875 300.39135742 272.88867188 C301.47877511 274.71693995 302.56843481 276.54387737 303.66088867 278.36914062 C310.15001405 289.28188728 314.12748137 298.18858318 314.14526367 311.10742188 C314.16975586 312.02458984 314.19424805 312.94175781 314.21948242 313.88671875 C314.27046975 326.04719538 309.40398954 335.79935625 303.39526367 346.10742188 C302.1384529 348.30646899 300.88195126 350.50569281 299.62573242 352.70507812 C298.98555176 353.8177002 298.34537109 354.93032227 297.68579102 356.07666016 C294.64992162 361.37530857 291.68188346 366.71145615 288.70776367 372.04492188 C283.72176938 380.95660653 278.70978385 389.85330449 273.67333984 398.73657227 C270.81293107 403.78652634 267.97339968 408.84702015 265.16088867 413.92382812 C242.09139673 455.54270961 242.09139673 455.54270961 220.89889979 461.98916399 C214.23123397 463.62747666 207.7712472 463.70531893 200.9307251 463.68734741 C199.65813929 463.69187853 198.38555349 463.69640964 197.07440448 463.70107806 C193.56251914 463.71325024 190.05072948 463.71305447 186.5388279 463.71068931 C182.74318619 463.71027967 178.94757456 463.72133423 175.15194702 463.73080444 C167.72322814 463.74738353 160.29454101 463.75291258 152.86580518 463.7540292 C146.82445992 463.75498112 140.7831251 463.7590986 134.74178314 463.76543045 C117.59549594 463.78303424 100.44923372 463.79227064 83.30293742 463.7907695 C82.37949883 463.79068959 81.45606025 463.79060968 80.50463867 463.79052734 C79.11778028 463.7904047 79.11778028 463.7904047 77.70290455 463.79027958 C62.72280752 463.78946688 47.74281109 463.80860293 32.76274315 463.83680408 C17.3637093 463.86556412 1.96472447 463.87934266 -13.4343369 463.87761652 C-22.07266952 463.87695371 -30.71089666 463.88239826 -39.34920502 463.90397263 C-46.70445416 463.92222551 -54.05955002 463.92649813 -61.41481206 463.91295378 C-65.16333569 463.90644483 -68.91156559 463.90623122 -72.66006088 463.92366028 C-76.73434816 463.94240836 -80.80796181 463.92978271 -84.88226318 463.91439819 C-86.63721796 463.92982888 -86.63721796 463.92982888 -88.42762637 463.9455713 C-100.64782686 463.84405287 -111.23341586 460.44388511 -121.22973633 453.41992188 C-122.18299805 452.76056641 -122.18299805 452.76056641 -123.15551758 452.08789062 C-131.94394659 445.32606165 -136.65811722 434.00811771 -141.48461914 424.31420898 C-142.35674545 422.58025124 -142.35674545 422.58025124 -143.24649048 420.81126404 C-144.82210639 417.67777947 -146.39022153 414.54060102 -147.95644474 411.40241313 C-149.27128703 408.76961207 -150.58982917 406.13867141 -151.9083221 403.50769717 C-155.02025869 397.29780482 -158.1260139 391.08484933 -161.2277832 384.86987305 C-164.41570981 378.48252385 -167.61385338 372.10036701 -170.81707883 365.72067827 C-173.58061395 360.21582519 -176.33787744 354.7078625 -179.09018588 349.19738775 C-180.72820633 345.91799305 -182.36846473 342.63977115 -184.01474762 339.3645153 C-185.84976937 335.71293371 -187.67164478 332.0549406 -189.49243164 328.39624023 C-190.03169281 327.32738586 -190.57095398 326.25853149 -191.1265564 325.1572876 C-194.89090363 317.5543853 -198.59187686 309.62455663 -198.62817383 300.98242188 C-198.63204102 300.0671875 -198.6359082 299.15195312 -198.63989258 298.20898438 C-198.62249023 296.82839844 -198.62249023 296.82839844 -198.60473633 295.41992188 C-198.61633789 294.49953125 -198.62793945 293.57914062 -198.63989258 292.63085938 C-198.5968877 282.45303765 -195.59157419 274.3019572 -190.60473633 265.54492188 C-189.89728271 264.28023071 -189.89728271 264.28023071 -189.17553711 262.98999023 C-184.28555716 254.342961 -179.09907492 245.87210009 -173.9128418 237.40087891 C-168.75083283 228.96447506 -163.70743663 220.46622426 -158.72973633 211.91992188 C-153.06061735 202.18932985 -147.2891384 192.52947713 -141.41723633 182.91992188 C-135.95176223 173.97437256 -130.62172336 164.96728635 -125.45922852 155.84301758 C-121.80620975 149.39545191 -118.03364486 143.02930535 -114.20532227 136.68457031 C-109.48997263 128.86756847 -104.8248887 121.02137965 -100.16723633 113.16992188 C-99.34880219 111.7906048 -98.53036138 110.41129168 -97.71191406 109.03198242 C-96.04694245 106.22585348 -94.38218534 103.4195974 -92.7175293 100.61328125 C-90.29680565 96.53261594 -87.87482429 92.45269839 -85.45239258 88.37304688 C-85.06179153 87.71519196 -84.67119049 87.05733704 -84.26875305 86.37954712 C-82.30575088 83.07356892 -80.34236844 79.76781729 -78.37841797 76.46240234 C-74.71658877 70.29849939 -71.05802899 64.13273368 -67.41168213 57.95965576 C-65.7178597 55.09258604 -64.02208265 52.22667465 -62.32617188 49.36083984 C-61.53011847 48.01440693 -60.73498797 46.66742781 -59.94091797 45.31982422 C-55.86573826 38.40442105 -51.72910924 31.53607951 -47.41333008 24.76757812 C-46.86870621 23.90765762 -46.86870621 23.90765762 -46.31307983 23.03036499 C-35.55501758 6.32075598 -19.23135416 -0.04709878 0 0 Z M-6.22973633 21.41992188 C-5.55853106 25.07554362 -4.68513554 27.76634596 -2.81567383 30.99023438 C-2.30979736 31.87243652 -1.8039209 32.75463867 -1.28271484 33.66357422 C-0.72898193 34.61441895 -0.17524902 35.56526367 0.39526367 36.54492188 C1.58771881 38.62244519 2.77908121 40.700596 3.96948242 42.77929688 C4.59387207 43.86662109 5.21826172 44.95394531 5.86157227 46.07421875 C9.025784 51.62069581 12.11546525 57.20813174 15.20776367 62.79492188 C20.04204971 71.51450016 24.89321197 80.22418968 29.77026367 88.91992188 C34.6473178 97.6156584 39.49762262 106.32581507 44.33276367 115.04492188 C48.94319084 123.35694457 53.58256069 131.65123461 58.27026367 139.91992188 C63.60417797 149.32846791 68.86894287 158.77409747 74.11401367 168.23242188 C78.31444592 175.80527509 82.53414964 183.36697484 86.77026367 190.91992188 C91.6473178 199.6156584 96.49762262 208.32581507 101.33276367 217.04492188 C106.4616096 226.29158867 111.63505325 235.51131353 116.85205078 244.70849609 C121.07901722 252.17043196 125.24163556 259.66696576 129.39526367 267.16992188 C133.91704336 275.33098426 138.47414168 283.46826049 143.14526367 291.54492188 C143.60368652 292.33866211 144.06210937 293.13240234 144.53442383 293.95019531 C146.38179176 297.38280652 146.38179176 297.38280652 148.77026367 300.41992188 C150.39701145 300.51332621 152.02780418 300.53737358 153.65722656 300.53344727 C155.21873192 300.53333397 155.21873192 300.53333397 156.81178284 300.53321838 C158.51019569 300.52547646 158.51019569 300.52547646 160.24291992 300.51757812 C161.39569931 300.51616318 162.5484787 300.51474823 163.7361908 300.51329041 C167.43507431 300.50767193 171.13389831 300.49511629 174.83276367 300.48242188 C177.33341384 300.47740926 179.83406496 300.47284594 182.3347168 300.46875 C188.47991955 300.45769649 194.62508736 300.44094039 200.77026367 300.41992188 C195.81760754 291.0774481 190.79634812 281.78000062 185.64526367 272.54492188 C184.99544211 271.3776498 184.34570457 270.21033095 183.69604492 269.04296875 C178.82802472 260.29987195 173.93830671 251.5689193 169.04345703 242.84082031 C164.74383499 235.17047336 160.47219444 227.484879 156.20776367 219.79492188 C151.5973365 211.48289918 146.95796665 203.18860914 142.27026367 194.91992188 C136.93634937 185.51137584 131.67158448 176.06574628 126.42651367 166.60742188 C122.22608142 159.03456866 118.00637771 151.47286891 113.77026367 143.91992188 C108.89320954 135.22418535 104.04290472 126.51402868 99.20776367 117.79492188 C94.5973365 109.48289918 89.95796665 101.18860914 85.27026367 92.91992188 C80.5825593 84.65123214 75.94343568 76.35681055 71.33276367 68.04492188 C66.27840071 58.93619753 61.22263856 49.82834417 56.14526367 40.73242188 C55.57751221 39.71164551 55.00976074 38.69086914 54.42480469 37.63916016 C53.88654053 36.67606934 53.34827637 35.71297852 52.79370117 34.72070312 C52.32883301 33.88708252 51.86396484 33.05346191 51.38500977 32.19458008 C50.58571045 30.82112427 50.58571045 30.82112427 49.77026367 29.41992188 C49.47604019 28.73276093 49.18181671 28.04559998 48.87867737 27.33761597 C47.71602423 24.94603065 46.69783871 23.26140365 44.77026367 21.41992188 C40.88437899 20.30255201 37.1409257 20.48653835 33.12573242 20.63867188 C32.00080887 20.64999146 30.87588531 20.66131104 29.71687317 20.67297363 C26.12876077 20.7177088 22.54466509 20.81807722 18.95776367 20.91992188 C16.52357664 20.96005206 14.08932689 20.99655362 11.6550293 21.02929688 C5.69207352 21.11743457 -0.26854451 21.25124543 -6.22973633 21.41992188 Z M-27.22973633 34.41992188 C-28.86457847 36.63134429 -28.86457847 36.63134429 -30.54614258 39.52539062 C-31.21919434 40.63938232 -31.89224609 41.75337402 -32.58569336 42.90112305 C-33.32145201 44.1364105 -34.0569593 45.37184769 -34.79223633 46.60742188 C-35.5559314 47.87894156 -36.32009881 49.15017766 -37.0847168 50.42114258 C-43.13015952 60.49160972 -49.07149275 70.6238526 -54.99169922 80.76831055 C-59.51636632 88.51901252 -64.09690112 96.23316597 -68.72973633 103.91992188 C-74.19264957 112.98566102 -79.57578692 122.0948583 -84.91723633 131.23242188 C-90.06542888 140.03823994 -95.24344496 148.82359211 -100.50756836 157.56079102 C-105.13432246 165.24497724 -109.715236 172.95603979 -114.29223633 180.66992188 C-114.69633728 181.35091949 -115.10043823 182.03191711 -115.51678467 182.73355103 C-117.59210648 186.23106203 -119.66710608 189.72876404 -121.74194336 193.2265625 C-125.34307509 199.29706681 -128.94707322 205.36586892 -132.55093384 211.43475342 C-133.73065045 213.42146131 -134.91026535 215.40822957 -136.08984375 217.39501953 C-139.29327963 222.79061501 -142.49676277 228.18618214 -145.70141602 233.58105469 C-146.11211838 234.27246552 -146.52282074 234.96387634 -146.94596863 235.67623901 C-147.77392206 237.06995505 -148.60197541 238.46361174 -149.43013 239.85720825 C-151.45276384 243.26131839 -153.47335839 246.66660385 -155.48925781 250.07470703 C-159.03384464 256.06394653 -162.59581721 262.03818889 -166.24145508 267.96679688 C-166.84683105 268.96114746 -167.45220703 269.95549805 -168.07592773 270.97998047 C-169.17150221 272.77684728 -170.27817781 274.56702397 -171.39916992 276.34814453 C-176.73233714 285.14635382 -178.13114035 293.30888426 -176.22973633 303.41992188 C-174.9113566 307.11265178 -173.19611615 310.55102262 -171.41357422 314.03955078 C-170.92232339 315.03243921 -170.43107256 316.02532764 -169.92493534 317.0483036 C-168.88972169 319.13653453 -167.84761256 321.22136006 -166.79893875 323.30286407 C-165.29101894 326.29819032 -163.80339108 329.30259121 -162.32321167 332.31170654 C-159.33171035 338.38650832 -156.31223682 344.44713647 -153.28833008 350.50585938 C-152.74928606 351.58677479 -152.21024204 352.6676902 -151.65486336 353.78136063 C-148.82117222 359.46353139 -145.98531405 365.1446138 -143.14746094 370.82470703 C-140.22000708 376.68517732 -137.30004414 382.54934839 -134.38163662 388.41432762 C-132.12521307 392.94571291 -129.86349404 397.47443926 -127.60026741 402.00242996 C-126.51975597 404.16648247 -125.44124833 406.33153667 -124.3647747 408.49760056 C-122.87280496 411.49846934 -121.37342449 414.49551715 -119.87207031 417.49169922 C-119.20747299 418.83471603 -119.20747299 418.83471603 -118.52944946 420.2048645 C-118.12188919 421.01441589 -117.71432892 421.82396729 -117.29441833 422.65805054 C-116.94183173 423.3646903 -116.58924513 424.07133007 -116.22597408 424.79938316 C-115.3181351 426.59561816 -115.3181351 426.59561816 -113.22973633 427.41992188 C-112.64482422 426.27515381 -112.05991211 425.13038574 -111.45727539 423.95092773 C-109.27470675 419.68037523 -107.08994598 415.41094735 -104.90454102 411.1418457 C-103.96123947 409.29839913 -103.01852271 407.45465319 -102.07641602 405.6105957 C-100.71762421 402.95118448 -99.35669257 400.29287765 -97.99536133 397.63476562 C-97.57853088 396.81781723 -97.16170044 396.00086884 -96.73223877 395.15916443 C-96.33212585 394.37888382 -95.93201294 393.59860321 -95.51977539 392.79467773 C-95.13954224 392.0506369 -94.75930908 391.30659607 -94.36755371 390.54000854 C-93.281747 388.51683297 -92.09187131 386.59888578 -90.86938477 384.65649414 C-88.97989086 380.9267412 -89.08943307 380.28892257 -90.22973633 376.41992188 C-91.20682853 374.22581512 -92.25260687 372.0618234 -93.34082031 369.9206543 C-93.81902222 368.97323112 -93.81902222 368.97323112 -94.30688477 368.00666809 C-94.99721448 366.64072763 -95.6902857 365.27616996 -96.38580132 363.91286278 C-97.48880928 361.74993929 -98.58381537 359.58313298 -99.67677307 357.41511536 C-102.78504468 351.25348749 -105.90907509 345.09987653 -109.03466797 338.94702148 C-110.94886367 335.17750228 -112.85510285 331.40404078 -114.75691414 327.62825966 C-115.83081078 325.50251814 -116.91397557 323.38167421 -117.99742126 321.26078796 C-118.66187002 319.94323666 -119.32584025 318.62544389 -119.98925781 317.30737305 C-120.85743385 315.59791756 -120.85743385 315.59791756 -121.7431488 313.85392761 C-124.29343933 307.96277613 -125.52847596 302.17642308 -125.60473633 295.73242188 C-125.6330957 294.65605469 -125.66145508 293.5796875 -125.69067383 292.47070312 C-124.87775605 280.8957931 -119.13507729 271.02300132 -113.22973633 261.35742188 C-112.45748073 260.07017209 -111.68650209 258.78215543 -110.91674805 257.4934082 C-109.03447253 254.34834871 -107.13770857 251.21236287 -105.23547363 248.0793457 C-103.85227657 245.7971293 -102.4816476 243.5074926 -101.11254883 241.21679688 C-99.24440494 238.09232378 -97.37012291 234.97167163 -95.49145508 231.85351562 C-91.35493695 224.97591548 -87.26259996 218.07207391 -83.16723633 211.16992188 C-82.76313538 210.48892426 -82.35903442 209.80792664 -81.94268799 209.10629272 C-79.86736618 205.60878172 -77.79236657 202.11107971 -75.7175293 198.61328125 C-72.1169423 192.5436952 -68.51349799 186.47580592 -64.91018677 180.40783691 C-62.93324511 177.07860603 -60.95650101 173.74925785 -58.97973633 170.41992188 C-58.1880706 169.08658798 -57.39640394 167.75325465 -56.60473633 166.41992188 C-56.01692383 165.42992187 -56.01692383 165.42992187 -55.41723633 164.41992188 C-54.22973633 162.41992188 -53.04223633 160.41992188 -51.85473633 158.41992188 C-51.46289154 157.75997223 -51.07104675 157.10002258 -50.66732788 156.42007446 C-49.87535792 155.08623139 -49.08338607 153.75238943 -48.29141235 152.41854858 C-46.31687071 149.09302345 -44.34236136 145.76747916 -42.36791992 142.44189453 C-39.16503454 137.047287 -35.96213251 131.65268963 -32.75805664 126.25878906 C-32.34736938 125.56740341 -31.93668213 124.87601776 -31.5135498 124.16368103 C-30.68544467 122.76971015 -29.85723871 121.37579917 -29.02893066 119.98194885 C-27.00861079 116.58174171 -24.99033219 113.18035867 -22.97680664 109.77612305 C-19.39534391 103.72437104 -15.79422168 97.68870941 -12.11254883 91.69726562 C-11.4936377 90.68035645 -10.87472656 89.66344727 -10.23706055 88.61572266 C-9.10227784 86.75384661 -7.95621983 84.89877463 -6.79663086 83.05224609 C-6.30533691 82.24158691 -5.81404297 81.43092773 -5.30786133 80.59570312 C-4.87892578 79.90387939 -4.44999023 79.21205566 -4.00805664 78.49926758 C-2.95517215 75.68640145 -3.32675083 74.2740058 -4.22973633 71.41992188 C-5.21926254 69.3721307 -6.28377102 67.35982017 -7.39770508 65.37695312 C-7.71500076 64.80845139 -8.03229645 64.23994965 -8.35920715 63.65422058 C-9.37222523 61.84332157 -10.39471401 60.03796767 -11.41723633 58.23242188 C-12.08514455 57.0393929 -12.75246744 55.84603604 -13.41918945 54.65234375 C-15.33562387 51.22978156 -17.27927007 47.82321918 -19.22973633 44.41992188 C-19.80933105 43.39946777 -20.38892578 42.37901367 -20.98608398 41.32763672 C-21.51637207 40.41320801 -22.04666016 39.4987793 -22.59301758 38.55664062 C-23.05619385 37.75315186 -23.51937012 36.94966309 -23.99658203 36.12182617 C-24.40352295 35.56019775 -24.81046387 34.99856934 -25.22973633 34.41992188 C-25.88973633 34.41992188 -26.54973633 34.41992188 -27.22973633 34.41992188 Z M46.77026367 165.41992188 C46.51970215 165.92628174 46.26914063 166.4326416 46.01098633 166.9543457 C41.07607419 176.91257318 36.07303768 186.82586001 30.86987305 196.64672852 C26.99769515 203.96339544 23.19303769 211.31446026 19.39526367 218.66992188 C14.37460445 228.39135019 9.33615385 238.10311876 4.26782227 247.79980469 C-0.26792402 256.48151845 -4.7703517 265.1803985 -9.26953125 273.88110352 C-13.09215062 281.26202652 -16.97999646 288.60188232 -20.97192383 295.89257812 C-22.37825379 298.24783372 -22.37825379 298.24783372 -22.22973633 300.41992188 C25.62026367 300.41992188 73.47026367 300.41992188 122.77026367 300.41992188 C121.21067048 296.52093889 119.5900833 293.11632149 117.56713867 289.46679688 C117.25306564 288.89845123 116.93899261 288.33010559 116.61540222 287.74453735 C115.58658384 285.88471215 114.55350979 284.02729029 113.52026367 282.16992188 C112.79554278 280.86224881 112.07101742 279.55446737 111.34667969 278.24658203 C106.25644043 269.06307141 101.13312669 259.89801204 95.99414062 250.74169922 C91.70876419 243.10558446 87.45397249 235.45287474 83.20776367 227.79492188 C78.06029303 218.51571992 72.8775168 209.25779658 67.63793945 200.03027344 C64.7031657 194.85788221 61.79595513 189.67139327 58.91870117 184.46679688 C58.27876221 183.31260254 57.63882324 182.1584082 56.97949219 180.96923828 C55.73586632 178.72402058 54.4966114 176.47637502 53.26220703 174.22607422 C52.70412354 173.22012207 52.14604004 172.21416992 51.57104492 171.17773438 C51.07773682 170.28199707 50.58442871 169.38625977 50.07617188 168.46337891 C48.93109052 166.28664938 48.93109052 166.28664938 46.77026367 165.41992188 Z M-34.22973633 322.41992188 C-42.13166167 336.906785 -49.89332293 351.39872834 -57.35473633 366.10742188 C-59.18890624 369.7163961 -61.02498741 373.3243921 -62.86254883 376.93164062 C-63.3103923 377.81099777 -63.75823578 378.69035492 -64.21965027 379.59635925 C-68.04432386 387.09018187 -71.95571146 394.53651116 -75.88598633 401.9753418 C-79.03456895 407.9369429 -82.13458876 413.92346553 -85.22802734 419.91381836 C-86.19192764 421.78023202 -87.15705808 423.6460061 -88.12231445 425.51171875 C-90.85593805 430.7997582 -93.56741362 436.09527646 -96.22973633 441.41992188 C-71.47973633 441.41992188 -46.72973633 441.41992188 -21.22973633 441.41992188 C-15.4111806 430.36466599 -9.60187954 419.31334469 -3.89715576 408.20031738 C-2.06766628 404.63688877 -0.2348085 401.07519419 1.59838867 397.51367188 C1.95969879 396.81171692 2.32100891 396.10976196 2.69326782 395.38653564 C6.20342477 388.57138491 9.74766201 381.7742604 13.30175781 374.98193359 C16.08004821 369.66897065 18.84419677 364.34898202 21.59448242 359.02148438 C21.92512695 358.38118286 22.25577148 357.74088135 22.59643555 357.08117676 C24.21014767 353.95564018 25.82251699 350.82942144 27.43286133 347.70214844 C32.36191675 338.14984022 32.36191675 338.14984022 34.77563477 333.73339844 C35.26395027 332.83852219 35.26395027 332.83852219 35.76213074 331.92556763 C36.6679187 330.27187407 37.5796325 328.62143033 38.49169922 326.97119141 C39.91960857 324.59753606 39.91960857 324.59753606 39.77026367 322.41992188 C15.35026367 322.41992188 -9.06973633 322.41992188 -34.22973633 322.41992188 Z " fill="#000000" transform="translate(198.229736328125,24.580078125)"/>
<path d="M0 0 C82.5 0 165 0 250 0 C249.12521703 3.49913188 248.1763985 5.78581093 246.48046875 8.90234375 C245.95912354 9.86390381 245.43777832 10.82546387 244.90063477 11.81616211 C244.33530029 12.84620361 243.76996582 13.87624512 243.1875 14.9375 C242.30952759 16.54733765 242.30952759 16.54733765 241.41381836 18.18969727 C236.74275837 26.72194871 231.93974772 35.17404861 227.08984375 43.60546875 C223.72500537 49.46286007 220.42161891 55.35400964 217.125 61.25 C216.25597046 62.80364258 216.25597046 62.80364258 215.36938477 64.38867188 C212.94824909 68.71936505 210.52921242 73.05122316 208.11230469 77.38427734 C206.85134885 79.64486612 205.58979911 81.90512372 204.32763672 84.16503906 C203.14818703 86.27689368 201.97003158 88.38947189 200.79345703 90.50292969 C190.17831022 109.50445405 190.17831022 109.50445405 185.75 113.375 C185.08484375 113.98085938 184.4196875 114.58671875 183.734375 115.2109375 C176.4997722 119.94443476 169.49875164 121.59450758 160.95187378 121.48101807 C159.99186183 121.48443577 159.03184988 121.48785347 158.04274666 121.49137473 C154.85354367 121.4979182 151.66519854 121.47603593 148.47607422 121.45410156 C146.17906209 121.45297232 143.88204852 121.45360844 141.58503723 121.45587158 C135.36875809 121.45701665 129.15278928 121.43354042 122.93658209 121.40557575 C116.43300809 121.38052785 109.92942656 121.37821741 103.42581177 121.37347412 C92.51624029 121.36246439 81.60678306 121.33749957 70.69726562 121.30175781 C59.46452396 121.26499556 48.23181318 121.23670449 36.99902344 121.21972656 C36.3056807 121.21867567 35.61233797 121.21762477 34.89798485 121.21654204 C31.41940278 121.21132157 27.9408205 121.20626682 24.46223807 121.20129442 C-4.35858292 121.15988297 -33.17928874 121.0891799 -62 121 C-60.78189935 117.27751868 -59.509685 113.7702046 -57.75 110.26953125 C-57.31220215 109.39514404 -56.8744043 108.52075684 -56.42333984 107.61987305 C-55.9536377 106.69343994 -55.48393555 105.76700684 -55 104.8125 C-54.2587085 103.34067261 -54.2587085 103.34067261 -53.50244141 101.83911133 C-50.13304815 95.17310371 -46.68874405 88.54970291 -43.18896484 81.95141602 C-39.3155557 74.63671793 -35.52559339 67.28004957 -31.74057007 59.91937256 C-20.86453435 38.76949223 -20.86453435 38.76949223 -15.5625 28.5625 C-14.92852295 27.33515137 -14.92852295 27.33515137 -14.28173828 26.08300781 C-9.69913431 17.2820267 -4.82502872 8.6850517 0 0 Z " fill="#0083FD" transform="translate(239,346)"/>
<path d="M0 0 C9.18023113 -0.1397281 18.36008982 -0.24598631 27.54115677 -0.31087303 C31.80549233 -0.34203385 36.06909432 -0.3842218 40.33300781 -0.45263672 C44.45686682 -0.51838168 48.58002548 -0.55382036 52.70436859 -0.56926346 C54.26873535 -0.58025208 55.83306874 -0.60170787 57.39713287 -0.63438034 C68.2860061 -0.85255819 77.55337238 0.33854517 86.10134888 7.84541321 C91.4888994 13.39202248 95.07327383 20.51840564 98.875 27.1875 C99.6139694 28.46807188 100.35389819 29.74809055 101.09472656 31.02758789 C102.63230067 33.68488748 104.1657499 36.34450208 105.69628906 39.00585938 C108.99045505 44.72659208 112.33392575 50.41834284 115.67718506 56.11047363 C116.75069502 57.93868363 117.82303623 59.76757417 118.89501953 61.59667969 C125.23561244 72.41420021 131.6125649 83.21008589 138 94 C145.56369267 106.77689604 153.09880903 119.57009578 160.60241699 132.38235474 C165.73266354 141.14161435 170.8825028 149.88897102 176.0534668 158.62426758 C180.49492324 166.13262332 184.90511467 173.6591238 189.3125 181.1875 C194.84742316 190.64154589 200.40774319 200.07971436 206 209.5 C213.34255764 221.87099811 220.63129635 234.27282681 227.89312744 246.69134521 C229.96727354 250.2377336 232.04580857 253.78149879 234.12826538 257.32301331 C235.75420018 260.08915501 237.37674141 262.85728723 239 265.625 C239.89066162 267.13646606 239.89066162 267.13646606 240.79931641 268.6784668 C241.33991699 269.60183838 241.88051758 270.52520996 242.4375 271.4765625 C243.14712891 272.6843335 243.14712891 272.6843335 243.87109375 273.91650391 C245 276 245 276 246 279 C234.35208529 279.18534534 222.70452118 279.32749922 211.05543232 279.41449738 C205.64620706 279.45625256 200.2379904 279.51288676 194.8293457 279.60351562 C189.60971864 279.69043006 184.39106164 279.73827164 179.17076683 279.75901794 C177.17911693 279.77380215 175.18752028 279.80267382 173.19628334 279.84584045 C170.40613707 279.90392134 167.61999905 279.91191387 164.8293457 279.90820312 C164.00575562 279.93696533 163.18216553 279.96572754 162.33361816 279.99536133 C159.96762501 279.96131086 158.21157127 279.84957256 156 279 C153.77792961 276.57498402 152.39919089 273.95742737 151 271 C150.46713379 270.08436279 149.93426758 269.16872559 149.38525391 268.2253418 C148.68795166 266.97491089 148.68795166 266.97491089 147.9765625 265.69921875 C147.43829834 264.73612793 146.90003418 263.77303711 146.34545898 262.78076172 C145.77770752 261.75998535 145.20995605 260.73920898 144.625 259.6875 C144.01922119 258.60227051 143.41344238 257.51704102 142.78930664 256.39892578 C137.69004392 247.25781193 132.61499188 238.10322328 127.53759766 228.94995117 C123.55724243 221.78149739 119.54377177 214.63285043 115.5 207.5 C110.1660857 198.09145397 104.9013208 188.6458244 99.65625 179.1875 C95.45581775 171.61464679 91.23611403 164.05294703 87 156.5 C82.12294587 147.80426348 77.27264105 139.09410681 72.4375 130.375 C67.82707283 122.0629773 63.18770298 113.76868727 58.5 105.5 C53.1660857 96.09145397 47.9013208 86.6458244 42.65625 77.1875 C37.88830779 68.5914974 33.09162303 60.01199504 28.28295898 51.4387207 C23.23365526 42.4307172 18.22305973 33.40145207 13.21655273 24.36962891 C9.28143389 17.27940946 5.29885893 10.22096759 1.22265625 3.2109375 C0 1 0 1 0 0 Z " fill="#FEAE00" transform="translate(243,46)"/>
<path d="M0 0 C0.66 0 1.32 0 2 0 C2.41137207 0.74757568 2.82274414 1.49515137 3.24658203 2.26538086 C11.21610581 16.74287034 19.20519571 31.20797228 27.30517578 45.61303711 C28.35672972 47.48461165 29.40395831 49.35862475 30.44628906 51.23535156 C31.52908352 53.16205874 32.63728968 55.07461076 33.76464844 56.97558594 C34.32442383 57.94012695 34.88419922 58.90466797 35.4609375 59.8984375 C36.22736572 61.18886963 36.22736572 61.18886963 37.00927734 62.50537109 C38.22930199 65.57737993 38.0134382 66.88098638 37 70 C36.19415258 71.86186223 35.32462983 73.69682959 34.41015625 75.5078125 C33.8785791 76.56653564 33.34700195 77.62525879 32.79931641 78.71606445 C32.22616699 79.84101318 31.65301758 80.96596191 31.0625 82.125 C30.47130371 83.29571045 29.88010742 84.4664209 29.27099609 85.67260742 C25.16726982 93.77411082 20.97512678 101.82560008 16.71875 109.84765625 C13.3067253 116.29043775 9.96945217 122.7719882 6.625 129.25 C-0.35805276 142.77063906 -7.38910358 156.26577997 -14.43847656 169.75195312 C-20.80986461 181.94331768 -27.15182065 194.1495132 -33.46643066 206.37036133 C-38.12758136 215.3905347 -42.80950443 224.3995907 -47.51171875 233.3984375 C-51.35594843 240.75797882 -55.18042074 248.12763883 -59 255.5 C-77.97147287 292.10611747 -77.97147287 292.10611747 -85 305 C-87.62232417 301.74913728 -89.46247519 298.34064568 -91.33813477 294.61425781 C-91.81677475 293.66705368 -91.81677475 293.66705368 -92.30508423 292.70071411 C-93.3547661 290.62028886 -94.39843231 288.53692034 -95.44140625 286.453125 C-96.17207852 284.99821195 -96.90286954 283.54335853 -97.6337738 282.08856201 C-99.16389609 279.04028038 -100.69071173 275.99036804 -102.21557617 272.93945312 C-104.16318 269.04404251 -106.12172011 265.15424632 -108.08317661 261.26579666 C-109.59603426 258.26239898 -111.10154049 255.25536049 -112.60505486 252.24727631 C-113.32367979 250.81237576 -114.04487958 249.37876159 -114.76877022 247.94651031 C-115.78397057 245.93586362 -116.78875631 243.92032126 -117.79125977 241.90332031 C-118.36401138 240.76066711 -118.936763 239.61801392 -119.52687073 238.44073486 C-122.05258587 232.54151319 -123.29875438 226.75525492 -123.375 220.3125 C-123.41753906 218.69794922 -123.41753906 218.69794922 -123.4609375 217.05078125 C-122.64801973 205.47587123 -116.90534097 195.60307944 -111 185.9375 C-110.2277444 184.65025022 -109.45676577 183.36223356 -108.68701172 182.07348633 C-106.80473621 178.92842683 -104.90797224 175.792441 -103.0057373 172.65942383 C-101.62254024 170.37720743 -100.25191127 168.08757073 -98.8828125 165.796875 C-97.01466862 162.6724019 -95.14038658 159.55174975 -93.26171875 156.43359375 C-89.12520062 149.55599361 -85.03286363 142.65215203 -80.9375 135.75 C-80.53339905 135.06900238 -80.1292981 134.38800476 -79.71295166 133.68637085 C-77.63762985 130.18885985 -75.56263025 126.69115784 -73.48779297 123.19335938 C-69.88720597 117.12377333 -66.28376166 111.05588405 -62.68045044 104.98791504 C-60.70350878 101.65868415 -58.72676468 98.32933597 -56.75 95 C-55.95833427 93.66666611 -55.16666761 92.33333278 -54.375 91 C-53.7871875 90.01 -53.7871875 90.01 -53.1875 89 C-49.625 83 -49.625 83 -48.43757629 81.00013733 C-47.64564497 79.66635237 -46.853724 78.33256127 -46.06181335 76.99876404 C-44.08678054 73.67229018 -42.11157002 70.34592211 -40.13598633 67.01977539 C-36.11139593 60.24341175 -32.09005968 53.46514662 -28.07421875 46.68359375 C-23.75948022 39.39826466 -19.4340411 32.11936969 -15.09936523 24.84588623 C-14.0122471 23.02056346 -12.92688778 21.19420423 -11.84179688 19.36767578 C-9.883104 16.07278457 -7.91137723 12.7858198 -5.9375 9.5 C-5.35959717 8.52603271 -4.78169434 7.55206543 -4.1862793 6.54858398 C-3.65945557 5.67661377 -3.13263184 4.80464355 -2.58984375 3.90625 C-2.13472412 3.14634766 -1.67960449 2.38644531 -1.21069336 1.60351562 C-0.81116455 1.07435547 -0.41163574 0.54519531 0 0 Z " fill="#1DB514" transform="translate(195,100)"/>
<path d="M0 0 C1.36693748 -0.00856522 1.36693748 -0.00856522 2.76148987 -0.01730347 C3.76926987 -0.01842133 4.77704987 -0.01953918 5.81536865 -0.02069092 C6.87062241 -0.02565582 7.92587616 -0.03062073 9.0131073 -0.03573608 C12.52239624 -0.05040339 16.03163996 -0.0571679 19.54095459 -0.06268311 C21.97135419 -0.06843156 24.40175377 -0.07418933 26.83215332 -0.07995605 C31.93674939 -0.09047958 37.04132966 -0.09631314 42.14593506 -0.09979248 C48.69104096 -0.10527474 55.23593856 -0.12929156 61.78097916 -0.15776443 C66.80467337 -0.17637871 71.82831736 -0.18159581 76.85204315 -0.18312836 C79.26500332 -0.18615902 81.67796253 -0.19420139 84.09088898 -0.20731354 C87.46665817 -0.22434557 90.84191781 -0.22250029 94.2177124 -0.21600342 C95.21739548 -0.2252182 96.21707855 -0.23443298 97.24705505 -0.243927 C105.84262798 -0.19203933 105.84262798 -0.19203933 109.77532959 3.14044189 C112.23674206 6.83256059 112.46183166 9.85398994 111.77532959 14.14044189 C109.5984092 17.71681111 107.60458348 19.55764974 103.77532959 21.14044189 C101.64445686 21.3977108 101.64445686 21.3977108 99.31051636 21.40786743 C98.42178833 21.4163974 97.5330603 21.42492737 96.61740112 21.43371582 C95.65003021 21.43280945 94.6826593 21.43190308 93.68597412 21.43096924 C92.66114929 21.43768646 91.63632446 21.44440369 90.58044434 21.45132446 C87.18962772 21.47033608 83.7990087 21.47423025 80.40814209 21.47637939 C78.05168577 21.48280502 75.69523026 21.4895332 73.33877563 21.49655151 C68.3975235 21.50853213 63.45634132 21.51223151 58.51507568 21.51104736 C52.18417236 21.51084411 45.85371761 21.53814978 39.52292061 21.57259178 C34.65530335 21.59483149 29.78779455 21.5988858 24.92013168 21.59782791 C22.58614429 21.60018815 20.2521541 21.60903533 17.91821671 21.62449265 C14.65298312 21.64409301 11.38872346 21.63833735 8.12347412 21.62628174 C7.16015167 21.63752075 6.19682922 21.64875977 5.20431519 21.66033936 C-0.58528735 21.60603412 -3.78150156 20.93464915 -8.22467041 17.14044189 C-10.81007601 13.73240724 -10.73528137 10.29827397 -10.22467041 6.14044189 C-7.78717041 3.26544189 -7.78717041 3.26544189 -5.22467041 1.14044189 C-3.66629933 -0.41792919 -2.16808223 0.00809821 0 0 Z " fill="#000204" transform="translate(266.22467041015625,368.85955810546875)"/>
<path d="M0 0 C3.27473891 1.63736945 5.33934373 3.67868746 7 7 C7.44408691 10.9079648 7.13704844 12.74548146 5.25 16.25 C2.59403033 19.49618515 0.78389647 20.74683978 -3.3671875 21.3359375 C-9.08522757 21.42500354 -12.56237048 20.99386657 -17 17 C-18.70146988 14.6798138 -18.99485575 13.0289364 -19.5 10.1875 C-18.89220645 6.3128161 -17.83712296 4.22543038 -15.17578125 1.3671875 C-10.55707042 -1.53505449 -5.18473537 -0.96062356 0 0 Z " fill="#000408" transform="translate(410,369)"/>
</svg>
