<?xml version="1.0" encoding="UTF-8"?>
<svg version="1.1" xmlns="http://www.w3.org/2000/svg" width="512" height="512">
<path d="M0 0 C4.51773754 1.20028451 7.691576 4.52628213 11.1171875 7.5625 C12.13945129 8.43130695 13.16433561 9.2970371 14.19140625 10.16015625 C16.42072339 12.03398317 18.64277826 13.91583157 20.859375 15.8046875 C23.74952748 18.26038371 26.67497486 20.66927164 29.6171875 23.0625 C34.2217233 26.81037798 38.75737941 30.63233444 43.28125 34.4765625 C46.6977829 37.37494823 50.14223588 40.234051 53.6171875 43.0625 C58.2217233 46.81037798 62.75737941 50.63233444 67.28125 54.4765625 C71.56956381 58.11451592 75.91494799 61.67771191 80.27734375 65.2265625 C84.12281952 68.38969112 87.91726205 71.61157139 91.703125 74.84570312 C94.44411376 77.17998657 97.20567336 79.44375959 100.1171875 81.5625 C103.54392446 80.03510916 106.17560032 78.01918829 109.0546875 75.625 C110.50681641 74.42037109 110.50681641 74.42037109 111.98828125 73.19140625 C115.7642898 70.0258544 119.52390205 66.84088545 123.27905273 63.65063477 C127.57687706 60.00374553 131.93314289 56.43323399 136.3046875 52.875 C139.43518416 50.30103608 142.52891211 47.68680914 145.6171875 45.0625 C150.46678131 40.94148366 155.36879556 36.89258646 160.3046875 32.875 C163.43519031 30.30103103 166.52868506 27.68654894 169.6171875 25.0625 C174.47185495 20.94358247 179.33529654 16.83883768 184.29296875 12.84375 C186.35505702 11.17810747 188.38636393 9.49192729 190.41015625 7.78125 C191.54094511 6.85328671 192.67244357 5.92618736 193.8046875 5 C194.31515625 4.557771 194.825625 4.11554199 195.3515625 3.65991211 C198.62852129 1.02881173 201.58057079 -0.29769483 205.8347168 -0.0402832 C211.02793423 1.33120614 215.32096358 4.72506248 219.6796875 7.75 C221.18305664 8.76030273 221.18305664 8.76030273 222.71679688 9.79101562 C225.53365345 11.69179113 228.32844161 13.62079576 231.1171875 15.5625 C231.85565918 16.06861816 232.59413086 16.57473633 233.35498047 17.09619141 C237.99530701 20.31873901 237.99530701 20.31873901 239.1171875 22.5625 C238.9315625 23.8 238.7459375 25.0375 238.5546875 26.3125 C238.40656838 28.47041105 238.40656838 28.47041105 239.1171875 30.5625 C242.08931542 33.41343436 245.24144122 35.19287537 249.1171875 36.5625 C252.3178589 35.99576199 252.3178589 35.99576199 255.1171875 34.5625 C261.83110309 34.67284248 266.07202913 37.71874372 271.4921875 41.4375 C273.27713152 42.63052593 275.06229127 43.82322914 276.84765625 45.015625 C277.73501465 45.61439453 278.62237305 46.21316406 279.53662109 46.83007812 C283.26177424 49.33089995 287.03109638 51.76067068 290.8046875 54.1875 C292.19423665 55.08558756 293.58356033 55.98402408 294.97265625 56.8828125 C295.65505371 57.32399414 296.33745117 57.76517578 297.04052734 58.21972656 C300.56667066 60.49973929 304.09187559 62.78120206 307.6171875 65.0625 C309.0338498 65.97917341 310.45051647 66.89584008 311.8671875 67.8125 C314.70052083 69.64583333 317.53385417 71.47916667 320.3671875 73.3125 C321.06924316 73.76665283 321.77129883 74.22080566 322.49462891 74.6887207 C323.90359494 75.60064293 325.3121277 76.51323495 326.72021484 77.42651367 C330.37633616 79.79659833 334.04047155 82.1527063 337.71875 84.48828125 C338.85473633 85.21337891 338.85473633 85.21337891 340.01367188 85.953125 C341.44706932 86.86768534 342.88307037 87.77818453 344.32226562 88.68359375 C356.50608495 96.47932506 356.50608495 96.47932506 357.69458008 100.53076172 C357.87723926 104.00493125 357.36507964 106.20685294 355.3828125 109.05078125 C353.12307481 111.5559732 350.82386632 113.5960142 348.1796875 115.6875 C346.72755859 116.85152344 346.72755859 116.85152344 345.24609375 118.0390625 C344.73578613 118.44801758 344.22547852 118.85697266 343.69970703 119.27832031 C340.96786699 121.49514824 338.2950616 123.78103874 335.6171875 126.0625 C330.76817858 130.1841932 325.86556236 134.23242744 320.9296875 138.25 C317.79919084 140.82396392 314.70546289 143.43819086 311.6171875 146.0625 C306.76759369 150.18351634 301.86557944 154.23241354 296.9296875 158.25 C293.79918714 160.82396697 290.70559947 163.43834726 287.6171875 166.0625 C278.94013808 173.4290334 270.14576577 180.6294436 261.1171875 187.5625 C264.9839797 191.53221062 269.04376946 195.19746367 273.2421875 198.8125 C273.90524902 199.38532715 274.56831055 199.9581543 275.25146484 200.54833984 C279.89844538 204.54894009 284.61028375 208.46046818 289.375 212.3203125 C292.48718791 214.86503595 295.55448624 217.45864381 298.6171875 220.0625 C302.56364874 223.41702096 306.53360985 226.73471962 310.5546875 230 C315.41768174 233.95693418 320.17418953 238.02685942 324.92333984 242.11865234 C329.32761975 245.90563378 333.80103343 249.59807017 338.30859375 253.26171875 C341.60176892 255.95946587 344.86416669 258.69156107 348.1171875 261.4375 C348.66963135 261.9022876 349.2220752 262.3670752 349.79125977 262.84594727 C351.24238692 264.07406619 352.68043917 265.31759023 354.1171875 266.5625 C354.725625 267.08328125 355.3340625 267.6040625 355.9609375 268.140625 C357.73869002 270.32678012 357.58281471 272.70707829 357.7109375 275.4296875 C355.81593773 282.23672614 346.87696231 286.17352597 341.3671875 289.6875 C339.82780518 290.67991699 339.82780518 290.67991699 338.25732422 291.69238281 C336.18132469 293.03021322 334.10370417 294.36553183 332.02441406 295.69824219 C328.77415775 297.78246768 325.53319234 299.88065976 322.29394531 301.98193359 C320.24942437 303.30780689 318.2031571 304.63093897 316.15625 305.953125 C311.97506564 308.6539386 307.79601771 311.35804583 303.6171875 314.0625 C302.20052956 314.97918015 300.78386291 315.89584684 299.3671875 316.8125 C298.3153125 317.493125 298.3153125 317.493125 297.2421875 318.1875 C295.1171875 319.5625 292.9921875 320.9375 290.8671875 322.3125 C289.8138623 322.9940918 289.8138623 322.9940918 288.73925781 323.68945312 C287.33242673 324.59971751 285.92552647 325.50987498 284.51855469 326.41992188 C280.82580886 328.80864006 277.13453005 331.19958558 273.4453125 333.59375 C272.29579102 334.33915039 272.29579102 334.33915039 271.12304688 335.09960938 C269.66036042 336.04813938 268.19809457 336.99731841 266.73632812 337.94726562 C266.07310547 338.37716797 265.40988281 338.80707031 264.7265625 339.25 C263.8598291 339.81267578 263.8598291 339.81267578 262.97558594 340.38671875 C261.1171875 341.5625 261.1171875 341.5625 258.43139648 342.60961914 C255.98633799 344.28201666 255.98633799 344.28201666 255.65927124 346.46334839 C255.4719127 349.02759745 255.4517122 351.55009904 255.48046875 354.12109375 C255.47009079 355.06179214 255.45971283 356.00249054 255.44902039 356.97169495 C255.4192747 359.9814995 255.42272175 362.99007465 255.4296875 366 C255.42079611 369.00600956 255.40483322 372.01168801 255.3782196 375.01759338 C255.36330359 376.88841715 255.35950184 378.75936982 255.36799622 380.63023376 C255.36426498 381.4811409 255.36053375 382.33204803 255.35668945 383.20874023 C255.35844681 383.95469955 255.36020416 384.70065887 255.36201477 385.46922302 C255.07651853 387.91022029 254.40743088 389.47768254 253.1171875 391.5625 C250.68823242 393.30737305 250.68823242 393.30737305 247.59765625 395.07421875 C247.03577606 395.39959122 246.47389587 395.72496368 245.89498901 396.06019592 C244.03701362 397.13327603 242.17094749 398.19140504 240.3046875 399.25 C238.99666723 400.00245676 237.68930369 400.75605617 236.38256836 401.51074219 C233.66025184 403.08177532 230.93515345 404.64781504 228.20800781 406.21044922 C222.44981128 409.51479331 216.72622874 412.87787745 211.00259399 416.24160767 C209.17127994 417.31743914 207.33908087 418.39174752 205.5065918 419.46557617 C197.49385127 424.16149101 189.49443501 428.87962733 181.50219727 433.61035156 C173.88614477 438.11540596 166.25279897 442.59071943 158.6171875 447.0625 C150.77681654 451.65428275 142.93849983 456.24922859 135.11767578 460.87426758 C133.31004971 461.94270199 131.50116545 463.00901113 129.69091797 464.07299805 C125.51730131 466.52938213 121.37046032 469.01602635 117.265625 471.5859375 C116.49959961 472.05781494 115.73357422 472.52969238 114.94433594 473.01586914 C113.53479393 473.88581596 112.13343848 474.76925941 110.74316406 475.66967773 C107.08215473 477.91004604 103.81127375 479.38674741 99.38134766 479.12133789 C94.11098336 477.82051151 89.57848018 474.67899829 84.9921875 471.875 C83.83211641 471.18308676 82.67104765 470.49284374 81.5090332 469.80419922 C79.15193195 468.40383216 76.80078591 466.99424418 74.45458984 465.57568359 C70.62189616 463.26373099 66.76791101 460.98989179 62.90966797 458.72094727 C60.25525722 457.15840238 57.60586191 455.58760797 54.95703125 454.015625 C50.00032096 451.07869866 45.02895525 448.16747362 40.05407715 445.26148987 C34.51469836 442.02540408 28.98148979 438.77893713 23.45263672 435.52490234 C21.3383091 434.28094352 19.22288112 433.0388515 17.10595703 431.79931641 C14.54062235 430.29362571 11.98374904 428.77471018 9.4296875 427.25 C8.33479004 426.61167236 8.33479004 426.61167236 7.21777344 425.96044922 C1.14321402 422.2963108 1.14321402 422.2963108 0.1171875 418.5625 C0.2409375 417.593125 0.3646875 416.62375 0.4921875 415.625 C0.43905213 412.55236403 0.43905213 412.55236403 -1.48046875 410.99609375 C-3.57900447 409.55653747 -5.49453027 408.44357041 -7.8828125 407.5625 C-10.50162004 408.15992124 -10.50162004 408.15992124 -12.8828125 409.5625 C-18.96759513 410.18964324 -22.36874549 408.68664816 -27.3828125 405.625 C-28.06553223 405.2225708 -28.74825195 404.8201416 -29.45166016 404.40551758 C-30.87940437 403.5614929 -32.30336982 402.71104588 -33.72363281 401.85449219 C-35.86277259 400.57449131 -38.0206504 399.3339644 -40.1875 398.1015625 C-41.54474266 397.31852559 -42.90153119 396.53470088 -44.2578125 395.75 C-44.89396484 395.3897876 -45.53011719 395.0295752 -46.18554688 394.65844727 C-49.58792083 392.64935104 -51.46386182 391.25257257 -52.8828125 387.5625 C-53.05361938 385.5163269 -53.05361938 385.5163269 -52.94775391 383.31982422 C-52.91598053 382.49151093 -52.88420715 381.66319763 -52.85147095 380.80978394 C-52.81282928 379.92122711 -52.77418762 379.03267029 -52.734375 378.1171875 C-52.69619231 376.21622785 -52.66248204 374.31517408 -52.6328125 372.4140625 C-52.58184884 369.42778813 -52.50853214 366.45179875 -52.35839844 363.46875 C-51.46621872 352.54002192 -51.46621872 352.54002192 -55.33560181 342.75765991 C-59.09385038 339.563069 -63.36141098 337.50425924 -67.84375 335.51049805 C-70.71375961 334.17617725 -73.26505365 332.46802344 -75.87890625 330.69140625 C-76.77762451 330.10343262 -77.67634277 329.51545898 -78.60229492 328.90966797 C-79.94771362 328.02625732 -79.94771362 328.02625732 -81.3203125 327.125 C-83.30452807 325.82657924 -85.28890419 324.52840382 -87.2734375 323.23046875 C-88.22798828 322.60575684 -89.18253906 321.98104492 -90.16601562 321.33740234 C-93.95980069 318.8588961 -97.76365974 316.39618145 -101.5703125 313.9375 C-108.52646459 309.44305145 -115.47223604 304.93282113 -122.41357422 300.41552734 C-126.49827575 297.75828808 -130.58623571 295.10644005 -134.68359375 292.46875 C-135.82538086 291.73301758 -135.82538086 291.73301758 -136.99023438 290.98242188 C-138.40595423 290.07079359 -139.82254704 289.16051874 -141.24023438 288.25195312 C-153.48094943 280.36622614 -153.48094943 280.36622614 -154.8828125 277.5625 C-155.78405227 270.91585673 -155.78405227 270.91585673 -153.70703125 267.796875 C-151.85920492 265.90935789 -149.92727319 264.23588929 -147.8828125 262.5625 C-147.07199219 261.88574219 -146.26117188 261.20898438 -145.42578125 260.51171875 C-143.59468888 259.002341 -141.75430033 257.50419157 -139.90625 256.015625 C-136.69276367 253.40830018 -133.53370403 250.74469467 -130.3828125 248.0625 C-126.43658339 244.70771335 -122.46638169 241.39027351 -118.4453125 238.125 C-114.19888868 234.66975849 -110.02984956 231.13552166 -105.8828125 227.5625 C-100.86961762 223.24321044 -95.7974393 219.01152881 -90.66015625 214.83984375 C-86.98168185 211.82359822 -83.35899594 208.74394059 -79.73608398 205.66137695 C-75.32175663 201.91298995 -70.83848618 198.2556164 -66.3203125 194.6328125 C-63.69562876 192.40351381 -61.28672521 190.02651053 -58.8828125 187.5625 C-59.52605469 187.04042969 -60.16929688 186.51835937 -60.83203125 185.98046875 C-66.05872911 181.72305865 -71.24614184 177.42778826 -76.3828125 173.0625 C-80.35187856 169.68969816 -84.34298139 166.35073463 -88.3828125 163.0625 C-92.9873483 159.31462202 -97.52300441 155.49266556 -102.046875 151.6484375 C-105.4634079 148.75005177 -108.90786088 145.890949 -112.3828125 143.0625 C-116.42264545 139.77426388 -120.41368921 136.43523558 -124.3828125 133.0625 C-128.37444823 129.67133951 -132.38667388 126.31114834 -136.4453125 123 C-144.70017261 116.26481222 -144.70017261 116.26481222 -148.5078125 113.125 C-149.51070312 112.30128906 -150.51359375 111.47757812 -151.546875 110.62890625 C-154.68393859 107.85381154 -154.81805535 107.04817864 -155.3828125 102.8125 C-155.34870835 100.23705833 -155.25634452 99.00537826 -153.57958984 97.01733398 C-149.21988277 93.51055976 -144.74298714 90.35393616 -140.0078125 87.375 C-138.49990944 86.41290234 -136.99209956 85.45065863 -135.484375 84.48828125 C-134.7202832 84.00311035 -133.95619141 83.51793945 -133.16894531 83.01806641 C-129.56009004 80.72033091 -125.97216341 78.39053617 -122.3828125 76.0625 C-120.96625513 75.14566444 -119.54958821 74.22899813 -118.1328125 73.3125 C-117.0809375 72.631875 -117.0809375 72.631875 -116.0078125 71.9375 C-41.6328125 23.8125 -41.6328125 23.8125 -39.50512695 22.43579102 C-38.09737713 21.52487502 -36.68966193 20.61390552 -35.28198242 19.70288086 C-31.60417932 17.32277483 -27.9256668 14.94377524 -24.24609375 12.56640625 C-23.48425781 12.07398438 -22.72242188 11.5815625 -21.9375 11.07421875 C-20.48850562 10.1376736 -19.03930143 9.20145296 -17.58984375 8.265625 C-16.92984375 7.83894531 -16.26984375 7.41226562 -15.58984375 6.97265625 C-14.64588745 6.36442017 -14.64588745 6.36442017 -13.68286133 5.74389648 C-11.97772692 4.62479362 -10.30407652 3.45814382 -8.6328125 2.2890625 C-5.68826822 0.44035714 -3.49746712 -0.21116783 0 0 Z " fill="#000102" transform="translate(154.8828125,16.4375)"/>
<path d="M0 0 C2.95488539 1.81875066 5.8639999 3.67352703 8.71875 5.64453125 C15.55991913 10.28613241 22.4967553 14.76471255 29.46875 19.20703125 C40.65541062 26.34262152 51.77756919 33.57260094 62.88378906 40.83251953 C68.72363319 44.64375139 74.58275073 48.42524809 80.44042969 52.20898438 C84.65662055 54.9331674 88.87033006 57.66118878 93.08422852 60.38891602 C96.68603962 62.72013556 100.28911476 65.04935968 103.89453125 67.375 C112.13114342 72.69085356 120.33359356 78.0490696 128.46875 83.51953125 C124.47223803 87.89515898 120.13695516 90.82154103 115.09375 93.89453125 C113.3896077 94.95148655 111.68652984 96.0101595 109.984375 97.0703125 C109.08783203 97.62799316 108.19128906 98.18567383 107.26757812 98.76025391 C102.4203348 101.80711673 97.63330731 104.94555635 92.84375 108.08203125 C90.89065816 109.3594257 88.93753365 110.6367702 86.984375 111.9140625 C86.04916016 112.52588379 85.11394531 113.13770508 84.15039062 113.76806641 C80.30521905 116.27947035 76.45092378 118.77661225 72.59375 121.26953125 C71.91554199 121.70789307 71.23733398 122.14625488 70.53857422 122.59790039 C69.1914809 123.46837726 67.84431368 124.33873975 66.49707031 125.20898438 C62.98642204 127.47729924 59.47770887 129.74860423 55.96875 132.01953125 C54.55209206 132.9362114 53.13542541 133.85287809 51.71875 134.76953125 C51.0175 135.22328125 50.31625 135.67703125 49.59375 136.14453125 C46.40625 138.20703125 46.40625 138.20703125 43.21875 140.26953125 C42.5172583 140.72344238 41.8157666 141.17735352 41.09301758 141.64501953 C39.67880979 142.5600856 38.26458458 143.47512474 36.8503418 144.39013672 C32.54562474 147.17533774 28.24111693 149.96085908 23.93847656 152.74926758 C22.51363283 153.67083638 21.08722611 154.58999366 19.65917969 155.5065918 C16.22355028 157.71458088 12.82059833 159.95332456 9.46484375 162.28125 C8.51581177 162.92682861 8.51581177 162.92682861 7.54760742 163.58544922 C6.36169327 164.39378958 5.18527758 165.21631548 4.02075195 166.05517578 C2.421875 167.1328125 2.421875 167.1328125 -0.53125 168.51953125 C-4.02538354 167.4399909 -6.95792503 165.75569854 -10.0234375 163.7890625 C-10.88171143 163.24096924 -11.73998535 162.69287598 -12.62426758 162.12817383 C-13.54232178 161.53544678 -14.46037598 160.94271973 -15.40625 160.33203125 C-16.37006592 159.71416748 -17.33388184 159.09630371 -18.3269043 158.4597168 C-27.2881344 152.70404755 -36.20773368 146.88411625 -45.12109375 141.0546875 C-51.89930296 136.62209385 -58.69990907 132.22445278 -65.50292969 127.83007812 C-69.01357796 125.56176326 -72.52229113 123.29045827 -76.03125 121.01953125 C-77.44790794 120.1028511 -78.86457459 119.18618441 -80.28125 118.26953125 C-83.11458333 116.43619792 -85.94791667 114.60286458 -88.78125 112.76953125 C-89.48290283 112.31553955 -90.18455566 111.86154785 -90.9074707 111.39379883 C-92.32013827 110.4796816 -93.73273625 109.56545682 -95.14526367 108.65112305 C-98.74754532 106.31955051 -102.35112164 103.99002091 -105.95703125 101.6640625 C-109.49896912 99.37929515 -113.03439639 97.0846736 -116.56835938 94.78759766 C-118.46024557 93.56540153 -120.36152253 92.35929656 -122.265625 91.15625 C-123.36390625 90.45113281 -124.4621875 89.74601562 -125.59375 89.01953125 C-126.55410156 88.41109375 -127.51445312 87.80265625 -128.50390625 87.17578125 C-129.17292969 86.62921875 -129.84195313 86.08265625 -130.53125 85.51953125 C-130.53125 84.52953125 -130.53125 83.53953125 -130.53125 82.51953125 C-128.87670898 81.13183594 -128.87670898 81.13183594 -126.52734375 79.69140625 C-125.65295654 79.14653564 -124.77856934 78.60166504 -123.87768555 78.0402832 C-122.43776245 77.16376099 -122.43776245 77.16376099 -120.96875 76.26953125 C-118.94186664 75.00916508 -116.91585205 73.7474009 -114.890625 72.484375 C-113.83939453 71.83194824 -112.78816406 71.17952148 -111.70507812 70.50732422 C-106.66484046 67.3505846 -101.6919033 64.0930605 -96.71875 60.83203125 C-94.79311956 59.57268604 -92.86734106 58.31356719 -90.94140625 57.0546875 C-90.02504395 56.45543457 -89.10868164 55.85618164 -88.16455078 55.23876953 C-82.30917835 51.41589426 -76.43351685 47.62432237 -70.55957031 43.83007812 C-67.04892204 41.56176326 -63.54020887 39.29045827 -60.03125 37.01953125 C-58.61459206 36.1028511 -57.19792541 35.18618441 -55.78125 34.26953125 C-54.729375 33.58890625 -54.729375 33.58890625 -53.65625 32.89453125 C-47.28125 28.76953125 -47.28125 28.76953125 -45.15576172 27.39428711 C-43.74063529 26.47856924 -42.32559607 25.5627166 -40.91064453 24.64672852 C-37.34611895 22.33942628 -33.78005786 20.03456431 -30.2109375 17.734375 C-29.4984082 17.27442139 -28.78587891 16.81446777 -28.05175781 16.34057617 C-26.63322271 15.42582442 -25.21332075 14.51318846 -23.79199219 13.6027832 C-20.24097319 11.31827226 -16.74485061 8.98397769 -13.3046875 6.53515625 C-12.62744629 6.06021729 -11.95020508 5.58527832 -11.25244141 5.09594727 C-9.97030608 4.19254525 -8.69838838 3.27440364 -7.43896484 2.33959961 C-3.22144492 -0.61147797 -3.22144492 -0.61147797 0 0 Z " fill="#62C3F1" transform="translate(257.53125,120.48046875)"/>
<path d="M0 0 C5.36203744 0.15828893 8.38156579 3.57784137 12.125 7 C13.46768588 8.19650769 14.81144195 9.3918155 16.15625 10.5859375 C16.81238281 11.17213867 17.46851563 11.75833984 18.14453125 12.36230469 C20.58531521 14.51661769 23.09396981 16.57784323 25.625 18.625 C29.62738911 21.86729148 33.57595635 25.16393128 37.5 28.5 C41.46899152 31.87288602 45.4601718 35.21176774 49.5 38.5 C54.1045358 42.24787798 58.64019191 46.06983444 63.1640625 49.9140625 C67.45873689 53.55741186 71.81060954 57.12583109 76.1796875 60.6796875 C78.78803447 62.82561284 81.36809742 64.99975872 83.93896484 67.19018555 C86.12063636 69.04678611 88.31300937 70.89051373 90.50585938 72.73388672 C91.87473076 73.89384865 93.22730987 75.07296636 94.578125 76.25390625 C95.33609375 76.89199219 96.0940625 77.53007812 96.875 78.1875 C97.51179687 78.73792969 98.14859375 79.28835938 98.8046875 79.85546875 C102.16887104 81.60939362 104.23249682 81.51620187 108 81 C111.28993243 79.44553474 114.24155719 77.47530225 117.25 75.4375 C118.08321777 74.8919043 118.91643555 74.34630859 119.77490234 73.78417969 C121.43122336 72.69883746 123.08352917 71.60733902 124.73144531 70.50927734 C127.67309941 68.55218461 130.6443491 66.64713344 133.625 64.75 C134.46289062 64.20859375 135.30078125 63.6671875 136.1640625 63.109375 C138 62 138 62 139 62 C141.47908419 82.85767951 141.47908419 82.85767951 137.84863281 88.92382812 C134.40984417 92.22129669 130.02663363 93.93507826 125.69189453 95.77685547 C120.42959228 98.16794329 115.53588279 101.25436557 110.5625 104.1875 C108.30458876 105.48516895 106.04545938 106.78072054 103.78515625 108.07421875 C97.30833479 111.803914 90.89712585 115.63560758 84.5 119.5 C76.05500755 124.59915168 67.55765054 129.59228365 59 134.5 C50.25714893 139.51477484 41.5731306 144.61520888 32.9375 149.8125 C31.90326904 150.43253906 30.86903809 151.05257812 29.8034668 151.69140625 C25.13581024 154.49312267 20.48358633 157.31374327 15.8671875 160.19921875 C14.70135132 160.91597778 14.70135132 160.91597778 13.51196289 161.6472168 C12.09888482 162.51633275 10.69359918 163.39832034 9.29858398 164.29614258 C6.39303815 166.06689304 4.54674272 167.04235883 1.10717773 166.77587891 C-2.11717896 165.97073979 -4.32529 164.8953534 -7.140625 163.1484375 C-8.60242188 162.25415039 -8.60242188 162.25415039 -10.09375 161.34179688 C-11.1353125 160.69275391 -12.176875 160.04371094 -13.25 159.375 C-15.5039965 157.99535308 -17.75905766 156.61760916 -20.015625 155.2421875 C-20.88205627 154.71229218 -20.88205627 154.71229218 -21.76599121 154.17169189 C-27.77970681 150.5024514 -33.88448642 146.99643308 -40 143.5 C-49.95739188 137.79327476 -59.82578482 131.95462143 -69.64257812 126.00976562 C-74.06621156 123.33549157 -78.49662547 120.67391577 -82.98046875 118.1015625 C-83.66906982 117.70533691 -84.3576709 117.30911133 -85.06713867 116.90087891 C-88.18679243 115.44685309 -90.64470477 115.48380073 -94 116 C-95.69115892 116.95799754 -97.36251417 117.95290022 -99 119 C-102.64405967 117.3406514 -105.96672923 115.63599283 -109 113 C-109.5491015 110.45656183 -109.37564385 108.68797386 -108.86328125 106.1484375 C-108.77739675 103.81855119 -108.77739675 103.81855119 -110.83984375 102.11328125 C-115.21820236 99.18535541 -119.71190681 96.48443129 -124.25 93.8125 C-126.06844665 92.73692436 -127.88619435 91.66016584 -129.703125 90.58203125 C-130.50395508 90.10999268 -131.30478516 89.6379541 -132.12988281 89.15161133 C-134 88 -134 88 -135 87 C-135.08737645 85.14630389 -135.10698153 83.28932459 -135.09765625 81.43359375 C-135.09443359 80.30888672 -135.09121094 79.18417969 -135.08789062 78.02539062 C-135.07951172 76.84138672 -135.07113281 75.65738281 -135.0625 74.4375 C-135.05798828 73.24962891 -135.05347656 72.06175781 -135.04882812 70.83789062 C-135.03699675 67.89187774 -135.02051287 64.94596319 -135 62 C-127.09726503 66.09747544 -119.73393472 70.73315414 -112.3828125 75.73046875 C-111.79918945 76.12024902 -111.21556641 76.5100293 -110.61425781 76.91162109 C-109.22301944 77.8496339 -107.85512357 78.82209974 -106.4921875 79.80078125 C-103.03265657 81.46547717 -100.79957915 81.52679755 -97 81 C-94.61877115 79.41547583 -92.79631835 77.99442788 -90.75 76.0625 C-89.61019446 75.0420527 -88.4695569 74.02253404 -87.328125 73.00390625 C-86.76673828 72.49359863 -86.20535156 71.98329102 -85.62695312 71.45751953 C-83.31738934 69.38847755 -80.9144132 67.44494396 -78.5 65.5 C-74.46016863 62.21176517 -70.46907935 58.87278574 -66.5 55.5 C-61.65040619 51.37898366 -56.74839194 47.33008646 -51.8125 43.3125 C-48.68200334 40.73853608 -45.58827539 38.12430914 -42.5 35.5 C-37.65040619 31.37898366 -32.74839194 27.33008646 -27.8125 23.3125 C-24.12869503 20.28359369 -20.49595753 17.19662341 -16.86230469 14.10791016 C-12.3038692 10.23993955 -7.6876628 6.448651 -3.046875 2.6796875 C-1.12984433 1.16253021 -1.12984433 1.16253021 0 0 Z " fill="#62C3F1" transform="translate(254,310)"/>
<path d="M0 0 C1.671875 0.6796875 1.671875 0.6796875 3.75 1.875 C4.54664063 2.33003906 5.34328125 2.78507812 6.1640625 3.25390625 C8.30637129 4.57293108 10.38436986 5.9237953 12.4609375 7.33984375 C13.06583008 7.7467041 13.67072266 8.15356445 14.29394531 8.57275391 C15.49330888 9.384803 16.68330304 10.21090681 17.86230469 11.05224609 C22.06808997 13.89578017 24.9750829 14.57444202 30 14 C30.84949219 13.61070313 31.69898438 13.22140625 32.57421875 12.8203125 C35 12 35 12 37.89453125 13.0546875 C45.70566661 17.92749751 45.70566661 17.92749751 46.5703125 21.078125 C46.44190865 23.0570549 46.22248388 25.0294285 46 27 C48.78633807 31.46664882 52.56072631 33.88095463 57 36.5 C58.43992795 37.37445085 59.87867519 38.25084806 61.31640625 39.12890625 C62.45746826 39.82330811 62.45746826 39.82330811 63.62158203 40.53173828 C67.77356998 43.0948727 71.85323818 45.76824871 75.9375 48.4375 C77.64060233 49.54821185 79.34372724 50.65888907 81.046875 51.76953125 C81.87767578 52.31174316 82.70847656 52.85395508 83.56445312 53.41259766 C87.2664973 55.82545765 90.97647484 58.22598397 94.6875 60.625 C95.71532593 61.289552 95.71532593 61.289552 96.76391602 61.9675293 C98.14157949 62.85826981 99.51926501 63.74897624 100.89697266 64.63964844 C103.08178904 66.05290556 105.26561562 67.4676816 107.44921875 68.8828125 C115.278409 73.95557187 123.11685262 79.01131278 131 84 C129.76661202 87.70016395 128.36179556 88.54703034 125.3125 90.9375 C120.7952061 94.54078891 116.3713176 98.22111886 112 102 C106.98760162 106.32019064 101.91459467 110.55099728 96.77734375 114.72265625 C93.65603633 117.28204054 90.5754997 119.88593791 87.5 122.5 C82.65045949 126.62107792 77.74839036 130.66991483 72.8125 134.6875 C69.68200024 137.26146647 66.58838974 139.87582164 63.5 142.5 C44.00509396 159.05298965 44.00509396 159.05298965 40.703125 158.87890625 C37.30057079 157.77258443 34.6446252 155.97803308 31.75 153.9375 C30.41315102 153.02096367 29.07447013 152.10709597 27.734375 151.1953125 C26.98865234 150.68774414 26.24292969 150.18017578 25.47460938 149.65722656 C20.70226206 146.46122286 15.84523147 143.39637008 11 140.3125 C-0.18704019 133.1775118 -11.30882618 125.94692574 -22.41503906 118.68701172 C-28.25488319 114.87577986 -34.11400073 111.09428316 -39.97167969 107.31054688 C-44.18787055 104.58636385 -48.40158006 101.85834247 -52.61547852 99.13061523 C-56.21728962 96.79939569 -59.82036476 94.47017157 -63.42578125 92.14453125 C-66.96771912 89.8597639 -70.50314639 87.56514235 -74.03710938 85.26806641 C-75.92899557 84.04587028 -77.83027253 82.83976531 -79.734375 81.63671875 C-80.83265625 80.93160156 -81.9309375 80.22648437 -83.0625 79.5 C-84.02285156 78.8915625 -84.98320312 78.283125 -85.97265625 77.65625 C-86.64167969 77.1096875 -87.31070312 76.563125 -88 76 C-88 75.01 -88 74.02 -88 73 C-85.94341807 71.00046195 -83.89943858 69.18782606 -81.6875 67.375 C-80.72952515 66.57267944 -80.72952515 66.57267944 -79.75219727 65.75415039 C-77.84280446 64.15945337 -75.92354996 62.57757671 -74 61 C-73.03578125 60.20722656 -72.0715625 59.41445312 -71.078125 58.59765625 C-69.31380513 57.15435908 -67.54686079 55.71426434 -65.77734375 54.27734375 C-62.65603633 51.71795946 -59.5754997 49.11406209 -56.5 46.5 C-51.65045949 42.37892208 -46.74839036 38.33008517 -41.8125 34.3125 C-38.68200334 31.73853608 -35.58827539 29.12430914 -32.5 26.5 C-27.66233431 22.38911977 -22.77382647 18.3485305 -17.84765625 14.34375 C-13.93654453 11.12472801 -10.08141592 7.84081057 -6.23828125 4.54101562 C-2.2154154 1.1077077 -2.2154154 1.1077077 0 0 Z " fill="#1B73BA" transform="translate(359,35)"/>
<path d="M0 0 C4.36084435 2.40091431 7.90794027 5.3598 11.625 8.625 C12.87544875 9.7106191 14.1267595 10.79524606 15.37890625 11.87890625 C15.9939502 12.4114502 16.60899414 12.94399414 17.24267578 13.49267578 C19.64957643 15.55716656 22.10096059 17.56362879 24.5625 19.5625 C28.58358091 22.82778303 32.55345162 26.14557844 36.5 29.5 C40.46903543 32.87283589 44.46017021 36.21176645 48.5 39.5 C52.53983295 42.78823612 56.53087671 46.12726442 60.5 49.5 C65.35952108 53.62848691 70.26590428 57.69270525 75.2109375 61.71875 C80.17108335 65.77578806 85.0836079 69.89013645 90 74 C86.00348803 78.37562773 81.66820516 81.30200978 76.625 84.375 C74.9208577 85.4319553 73.21777984 86.49062825 71.515625 87.55078125 C70.61908203 88.10846191 69.72253906 88.66614258 68.79882812 89.24072266 C63.9515848 92.28758548 59.16455731 95.4260251 54.375 98.5625 C52.42190816 99.83989445 50.46878365 101.11723895 48.515625 102.39453125 C47.58041016 103.00635254 46.64519531 103.61817383 45.68164062 104.24853516 C41.83646905 106.7599391 37.98217378 109.257081 34.125 111.75 C33.44679199 112.18836182 32.76858398 112.62672363 32.06982422 113.07836914 C30.7227309 113.94884601 29.37556368 114.8192085 28.02832031 115.68945312 C24.51767204 117.95776799 21.00895887 120.22907298 17.5 122.5 C16.08334206 123.41668015 14.66667541 124.33334684 13.25 125.25 C12.54875 125.70375 11.8475 126.1575 11.125 126.625 C4.75 130.75 4.75 130.75 2.62451172 132.12524414 C1.20938529 133.04096201 -0.20565393 133.95681465 -1.62060547 134.87280273 C-5.18513105 137.18010497 -8.75119214 139.48496694 -12.3203125 141.78515625 C-21.60418835 147.77262144 -30.82671669 153.84441979 -40 160 C-44.56578799 157.09198677 -48.62078828 153.8776411 -52.6875 150.3125 C-53.92883751 149.23599824 -55.17103371 148.16048591 -56.4140625 147.0859375 C-57.02282227 146.55967773 -57.63158203 146.03341797 -58.25878906 145.49121094 C-61.52887491 142.69063826 -64.88067465 139.99117022 -68.22265625 137.27734375 C-71.34396367 134.71795946 -74.4245003 132.11406209 -77.5 129.5 C-81.46903543 126.12716411 -85.46017021 122.78823355 -89.5 119.5 C-93.53983452 116.2117626 -97.53083277 112.87268539 -101.5 109.5 C-108.29072629 103.73217805 -115.15519458 98.05760431 -122.12890625 92.51171875 C-123.13824219 91.70347656 -124.14757812 90.89523438 -125.1875 90.0625 C-126.57001953 88.96615234 -126.57001953 88.96615234 -127.98046875 87.84765625 C-128.98013672 86.93306641 -128.98013672 86.93306641 -130 86 C-130 85.34 -130 84.68 -130 84 C-128.34545898 82.72583008 -128.34545898 82.72583008 -125.99609375 81.26953125 C-124.68451294 80.44739136 -124.68451294 80.44739136 -123.34643555 79.60864258 C-121.90651245 78.719552 -121.90651245 78.719552 -120.4375 77.8125 C-118.41068266 76.54290413 -116.38466597 75.27202935 -114.359375 74 C-113.30814453 73.34128906 -112.25691406 72.68257813 -111.17382812 72.00390625 C-106.14297881 68.82750539 -101.16455297 65.57231682 -96.1875 62.3125 C-94.26179568 61.05326777 -92.33601583 59.79415102 -90.41015625 58.53515625 C-89.49379395 57.93590332 -88.57743164 57.33665039 -87.63330078 56.71923828 C-81.77792835 52.89636301 -75.90226685 49.10479112 -70.02832031 45.31054688 C-66.51767204 43.04223201 -63.00895887 40.77092702 -59.5 38.5 C-58.08334206 37.58331985 -56.66667541 36.66665316 -55.25 35.75 C-54.198125 35.069375 -54.198125 35.069375 -53.125 34.375 C-35.41666667 22.91666667 -17.70833333 11.45833333 0 0 Z " fill="#1B99D5" transform="translate(152,35)"/>
<path d="M0 0 C3.40018051 1.28700361 5.88698066 3.86449916 8.56201172 6.25683594 C9.82154675 7.36070729 11.08197228 8.46356335 12.34326172 9.56542969 C12.96458984 10.11054199 13.58591797 10.6556543 14.22607422 11.21728516 C16.62954591 13.30377917 19.0892624 15.31568171 21.56201172 17.31933594 C25.58309263 20.58461897 29.55296334 23.90241437 33.49951172 27.25683594 C37.46854715 30.62967183 41.45968193 33.96860239 45.49951172 37.25683594 C50.10404752 41.00471392 54.63970363 44.82667038 59.16357422 48.67089844 C62.58010712 51.56928417 66.02456009 54.42838694 69.49951172 57.25683594 C70.37220703 57.97097656 71.24490234 58.68511719 72.14404297 59.42089844 C73.67349144 60.67207516 75.20375757 61.92227336 76.73925781 63.16601562 C78.56237566 64.6460554 80.37530127 66.13786555 82.18701172 67.63183594 C82.76451172 68.09654297 83.34201172 68.56125 83.93701172 69.04003906 C85.34869856 70.21301001 86.68193542 71.47905924 87.99951172 72.75683594 C87.99951172 73.74683594 87.99951172 74.73683594 87.99951172 75.75683594 C86.3449707 77.14453125 86.3449707 77.14453125 83.99560547 78.58496094 C83.12145996 79.12967041 82.24731445 79.67437988 81.34667969 80.2355957 C80.38648926 80.82010498 79.42629883 81.40461426 78.43701172 82.00683594 C76.40623334 83.26982451 74.3763117 84.53419152 72.34716797 85.79980469 C71.2954541 86.45255371 70.24374023 87.10530273 69.16015625 87.77783203 C64.18765156 90.89131288 59.28076594 94.10283262 54.37451172 97.31933594 C52.45271976 98.57597336 50.53084525 99.83248454 48.60888672 101.08886719 C47.67367187 101.70068848 46.73845703 102.31250977 45.77490234 102.94287109 C41.39614979 105.80477569 37.01083652 108.65655499 32.62451172 111.50683594 C31.80539307 112.03913818 30.98627441 112.57144043 30.14233398 113.11987305 C22.79299579 117.89395953 15.43583554 122.65591395 8.07617188 127.4140625 C3.84488583 130.1500222 -0.38531382 132.88766216 -4.61523438 135.62573242 C-8.21728075 137.95712847 -11.82060648 140.28650532 -15.42626953 142.61230469 C-16.15434814 143.08249023 -16.88242676 143.55267578 -17.63256836 144.03710938 C-19.07027228 144.96499263 -20.50889218 145.89145837 -21.94848633 146.81640625 C-25.2020981 148.91354263 -28.42710137 151.03473274 -31.59423828 153.26074219 C-32.65642578 154.00195312 -33.71861328 154.74316406 -34.81298828 155.50683594 C-35.72693359 156.16167969 -36.64087891 156.81652344 -37.58251953 157.49121094 C-40.00048828 158.75683594 -40.00048828 158.75683594 -41.95996094 158.48632812 C-45.40002075 157.25650057 -47.87819576 154.6579026 -50.56298828 152.25683594 C-51.82252332 151.15296459 -53.08294885 150.05010853 -54.34423828 148.94824219 C-55.27623047 148.13057373 -55.27623047 148.13057373 -56.22705078 147.29638672 C-58.63052248 145.20989271 -61.09023897 143.19799016 -63.56298828 141.19433594 C-67.58406919 137.92905291 -71.5539399 134.6112575 -75.50048828 131.25683594 C-79.46952371 127.88400005 -83.4606585 124.54506948 -87.50048828 121.25683594 C-92.10502409 117.50895796 -96.6406802 113.68700149 -101.16455078 109.84277344 C-104.58108368 106.94438771 -108.02553666 104.08528493 -111.50048828 101.25683594 C-112.37318359 100.54269531 -113.24587891 99.82855469 -114.14501953 99.09277344 C-115.674468 97.84159672 -117.20473414 96.59139851 -118.74023438 95.34765625 C-120.56335222 93.86761648 -122.37627783 92.37580632 -124.18798828 90.88183594 C-125.05423828 90.18477539 -125.05423828 90.18477539 -125.93798828 89.47363281 C-127.34967513 88.30066187 -128.68291198 87.03461263 -130.00048828 85.75683594 C-130.00048828 84.76683594 -130.00048828 83.77683594 -130.00048828 82.75683594 C-128.34594727 81.36914062 -128.34594727 81.36914062 -125.99658203 79.92871094 C-125.12219482 79.38384033 -124.24780762 78.83896973 -123.34692383 78.27758789 C-121.90700073 77.40106567 -121.90700073 77.40106567 -120.43798828 76.50683594 C-118.41110492 75.24646977 -116.38509034 73.98470559 -114.35986328 72.72167969 C-113.30863281 72.06925293 -112.25740234 71.41682617 -111.17431641 70.74462891 C-106.13407874 67.58788928 -101.16114159 64.33036519 -96.18798828 61.06933594 C-94.26235784 59.80999073 -92.33657934 58.55087188 -90.41064453 57.29199219 C-89.49428223 56.69273926 -88.57791992 56.09348633 -87.63378906 55.47607422 C-81.77841663 51.65319895 -75.90275513 47.86162706 -70.02880859 44.06738281 C-66.51816032 41.79906795 -63.00944715 39.52776296 -59.50048828 37.25683594 C-58.08383034 36.34015578 -56.66716369 35.4234891 -55.25048828 34.50683594 C-54.19861328 33.82621094 -54.19861328 33.82621094 -53.12548828 33.13183594 C-46.75048828 29.00683594 -46.75048828 29.00683594 -44.625 27.6315918 C-43.20987357 26.71587393 -41.79483435 25.80002129 -40.37988281 24.8840332 C-36.81535723 22.57673097 -33.24929614 20.27186899 -29.68017578 17.97167969 C-28.96756592 17.51180664 -28.25495605 17.05193359 -27.52075195 16.578125 C-26.10254303 15.6633181 -24.68344885 14.74988199 -23.26342773 13.83789062 C-19.71420448 11.549777 -16.20413014 9.2211783 -12.73876953 6.80761719 C-12.0570166 6.33718994 -11.37526367 5.8667627 -10.67285156 5.38208008 C-9.38113776 4.4870956 -8.09648492 3.58180404 -6.8203125 2.66479492 C-2.5163178 -0.30586436 -2.5163178 -0.30586436 0 0 Z " fill="#1B99D5" transform="translate(401.00048828125,215.2431640625)"/>
<path d="M0 0 C2.6779254 0.96858567 4.82805415 2.30663513 7.22021484 3.85498047 C8.21730469 4.49669189 9.21439453 5.13840332 10.24169922 5.79956055 C11.31097656 6.495896 12.38025391 7.19223145 13.48193359 7.90966797 C14.60209162 8.63366005 15.72253854 9.35720533 16.84326172 10.08032227 C20.2904113 12.30730145 23.7303494 14.54526141 27.16943359 16.78466797 C28.20890137 17.46062012 29.24836914 18.13657227 30.31933594 18.83300781 C35.17154588 21.98957409 40.01983004 25.15207531 44.86474609 28.31982422 C51.60840866 32.72802447 58.37359211 37.10267712 65.14111328 41.47412109 C68.65176155 43.74243596 72.16047473 46.01374095 75.66943359 48.28466797 C77.08609153 49.20134812 78.50275819 50.11801481 79.91943359 51.03466797 C82.75276693 52.8680013 85.58610026 54.70133464 88.41943359 56.53466797 C89.47191284 57.21565552 89.47191284 57.21565552 90.5456543 57.91040039 C91.95832187 58.82451762 93.37091985 59.73874239 94.78344727 60.65307617 C98.38572892 62.98464871 101.98930523 65.31417831 105.59521484 67.64013672 C113.83182701 72.95599027 122.03427715 78.31420632 130.16943359 83.78466797 C126.45882769 88.77479315 122.10882117 92.42117925 117.26318359 96.29638672 C114.01775158 98.90666474 110.83910477 101.58358549 107.66943359 104.28466797 C102.82047799 108.40642268 97.91780685 112.45459672 92.98193359 116.47216797 C89.85143693 119.04613189 86.75770899 121.66035883 83.66943359 124.28466797 C78.81983978 128.40568431 73.91782553 132.45458151 68.98193359 136.47216797 C65.85141055 139.04615358 62.75869805 141.66149351 59.66943359 144.28466797 C58.57703294 145.20659897 57.48458535 146.12847437 56.39208984 147.05029297 C54.25728639 148.85384491 52.14342112 150.67842991 50.04052734 152.51904297 C49.07244141 153.34919922 48.10435547 154.17935547 47.10693359 155.03466797 C46.24970703 155.78232422 45.39248047 156.52998047 44.50927734 157.30029297 C42.16943359 158.78466797 42.16943359 158.78466797 40.33886719 158.56933594 C37.66094179 157.60075027 35.51081304 156.26270081 33.11865234 154.71435547 C32.1215625 154.07264404 31.12447266 153.43093262 30.09716797 152.76977539 C29.02789062 152.07343994 27.95861328 151.37710449 26.85693359 150.65966797 C25.73677557 149.93567589 24.61632864 149.21213061 23.49560547 148.48901367 C20.04845588 146.26203449 16.60851778 144.02407453 13.16943359 141.78466797 C12.12996582 141.10871582 11.09049805 140.43276367 10.01953125 139.73632812 C5.16732131 136.57976184 0.31903715 133.41726063 -4.52587891 130.24951172 C-11.26954147 125.84131147 -18.03472493 121.46665882 -24.80224609 117.09521484 C-28.31289436 114.82689998 -31.82160754 112.55559499 -35.33056641 110.28466797 C-36.74722435 109.36798781 -38.163891 108.45132113 -39.58056641 107.53466797 C-42.41389974 105.70133464 -45.24723307 103.8680013 -48.08056641 102.03466797 C-48.78221924 101.58067627 -49.48387207 101.12668457 -50.20678711 100.65893555 C-51.61945468 99.74481832 -53.03205266 98.83059354 -54.44458008 97.91625977 C-58.04686173 95.58468723 -61.65043805 93.25515763 -65.25634766 90.92919922 C-73.49295982 85.61334566 -81.69540997 80.25512962 -89.83056641 74.78466797 C-86.1199605 69.79454279 -81.76995398 66.14815669 -76.92431641 62.27294922 C-73.67888439 59.66267119 -70.50023759 56.98575045 -67.33056641 54.28466797 C-62.4816108 50.16291326 -57.57893966 46.11473922 -52.64306641 42.09716797 C-49.51256974 39.52320405 -46.4188418 36.90897711 -43.33056641 34.28466797 C-38.4809726 30.16365163 -33.57895834 26.11475443 -28.64306641 22.09716797 C-25.51254336 19.52318236 -22.41983086 16.90784243 -19.33056641 14.28466797 C-18.23816575 13.36273696 -17.14571816 12.44086157 -16.05322266 11.51904297 C-13.9184192 9.71549103 -11.80455394 7.89090603 -9.70166016 6.05029297 C-8.73357422 5.22013672 -7.76548828 4.38998047 -6.76806641 3.53466797 C-5.48222656 2.41318359 -5.48222656 2.41318359 -4.17041016 1.26904297 C-1.83056641 -0.21533203 -1.83056641 -0.21533203 0 0 Z " fill="#1B73BA" transform="translate(111.83056640625,215.21533203125)"/>
<path d="M0 0 C0 55.11 0 110.22 0 167 C-3.58420955 166.10394761 -5.38112897 165.30789195 -8.39453125 163.3671875 C-9.25602783 162.81587158 -10.11752441 162.26455566 -11.00512695 161.6965332 C-11.93156006 161.09542725 -12.85799316 160.49432129 -13.8125 159.875 C-14.78082764 159.25262451 -15.74915527 158.63024902 -16.74682617 157.98901367 C-19.83597195 155.99992093 -22.91895495 154.00161485 -26 152 C-26.99257812 151.35530762 -27.98515625 150.71061523 -29.0078125 150.04638672 C-33.87301579 146.88288135 -38.73311291 143.71165131 -43.58984375 140.53515625 C-50.36805296 136.1025626 -57.16865907 131.70492153 -63.97167969 127.31054688 C-67.48232796 125.04223201 -70.99104113 122.77092702 -74.5 120.5 C-75.91665794 119.58331985 -77.33332459 118.66665316 -78.75 117.75 C-81.58333333 115.91666667 -84.41666667 114.08333333 -87.25 112.25 C-87.95165283 111.7960083 -88.65330566 111.3420166 -89.3762207 110.87426758 C-90.78888827 109.96015035 -92.20148625 109.04592557 -93.61401367 108.1315918 C-97.21629532 105.80001926 -100.81987164 103.47048966 -104.42578125 101.14453125 C-107.96771912 98.8597639 -111.50314639 96.56514235 -115.03710938 94.26806641 C-116.92899557 93.04587028 -118.83027253 91.83976531 -120.734375 90.63671875 C-121.83265625 89.93160156 -122.9309375 89.22648437 -124.0625 88.5 C-125.02285156 87.8915625 -125.98320312 87.283125 -126.97265625 86.65625 C-127.64167969 86.1096875 -128.31070313 85.563125 -129 85 C-129 84.01 -129 83.02 -129 82 C-127.34545898 80.61230469 -127.34545898 80.61230469 -124.99609375 79.171875 C-124.12170654 78.62700439 -123.24731934 78.08213379 -122.34643555 77.52075195 C-120.90651245 76.64422974 -120.90651245 76.64422974 -119.4375 75.75 C-117.41061664 74.48963383 -115.38460205 73.22786965 -113.359375 71.96484375 C-112.30814453 71.31241699 -111.25691406 70.65999023 -110.17382812 69.98779297 C-105.13359046 66.83105335 -100.1606533 63.57352925 -95.1875 60.3125 C-93.26186956 59.05315479 -91.33609106 57.79403594 -89.41015625 56.53515625 C-88.49379395 55.93590332 -87.57743164 55.33665039 -86.63330078 54.71923828 C-80.77792835 50.89636301 -74.90226685 47.10479112 -69.02832031 43.31054688 C-65.51767204 41.04223201 -62.00895887 38.77092702 -58.5 36.5 C-57.08334206 35.58331985 -55.66667541 34.66665316 -54.25 33.75 C-53.198125 33.069375 -53.198125 33.069375 -52.125 32.375 C-48.9375 30.3125 -48.9375 30.3125 -45.75 28.25 C-45.0485083 27.79608887 -44.3470166 27.34217773 -43.62426758 26.87451172 C-42.21005979 25.95944565 -40.79583458 25.04440651 -39.3815918 24.12939453 C-35.07677695 21.34413024 -30.77260121 18.55788206 -26.46899414 15.77075195 C-24.34996259 14.39924699 -22.22970401 13.02965422 -20.109375 11.66015625 C-17.36350641 9.88575255 -14.62477539 8.10099579 -11.890625 6.30859375 C-11.24440186 5.88723145 -10.59817871 5.46586914 -9.93237305 5.03173828 C-8.71531856 4.238166 -7.50050793 3.44113824 -6.28833008 2.64013672 C-2.22578467 0 -2.22578467 0 0 0 Z " fill="#89D8FE" transform="translate(256,121)"/>
<path d="M0 0 C4.09969832 2.04984916 7.16047785 4.56818308 10.5625 7.5625 C11.82206003 8.65723639 13.08248534 9.75097798 14.34375 10.84375 C15.27574219 11.65199219 15.27574219 11.65199219 16.2265625 12.4765625 C18.63774159 14.5478397 21.09467909 16.55921009 23.5625 18.5625 C27.58358091 21.82778303 31.55345162 25.14557844 35.5 28.5 C39.46903543 31.87283589 43.46017021 35.21176645 47.5 38.5 C52.1045358 42.24787798 56.64019191 46.06983444 61.1640625 49.9140625 C65.45873689 53.55741186 69.81060954 57.12583109 74.1796875 60.6796875 C76.78803447 62.82561284 79.36809742 64.99975872 81.93896484 67.19018555 C84.12063636 69.04678611 86.31300937 70.89051373 88.50585938 72.73388672 C89.87473076 73.89384865 91.22730987 75.07296636 92.578125 76.25390625 C93.33609375 76.89199219 94.0940625 77.53007812 94.875 78.1875 C95.51179688 78.73792969 96.14859375 79.28835938 96.8046875 79.85546875 C100.16887104 81.60939362 102.23249682 81.51620187 106 81 C109.28993243 79.44553474 112.24155719 77.47530225 115.25 75.4375 C116.08321777 74.8919043 116.91643555 74.34630859 117.77490234 73.78417969 C119.43122336 72.69883746 121.08352917 71.60733902 122.73144531 70.50927734 C125.67309941 68.55218461 128.6443491 66.64713344 131.625 64.75 C132.46289062 64.20859375 133.30078125 63.6671875 134.1640625 63.109375 C136 62 136 62 137 62 C139.47908419 82.85767951 139.47908419 82.85767951 135.84863281 88.92382812 C132.40984417 92.22129669 128.02663363 93.93507826 123.69189453 95.77685547 C118.42959228 98.16794329 113.53588279 101.25436557 108.5625 104.1875 C106.30458876 105.48516895 104.04545938 106.78072054 101.78515625 108.07421875 C95.30833479 111.803914 88.89712585 115.63560758 82.5 119.5 C74.05500755 124.59915168 65.55765054 129.59228365 57 134.5 C48.25718773 139.51475259 39.57212171 144.61357513 30.9375 149.8125 C29.90616943 150.43326416 28.87483887 151.05402832 27.81225586 151.69360352 C25.81841961 152.89419825 23.82468253 154.09495767 21.83105469 155.29589844 C17.58127186 157.85397744 13.32703583 160.40408951 9.0625 162.9375 C8.36439209 163.35684814 7.66628418 163.77619629 6.94702148 164.20825195 C2.23026227 167 2.23026227 167 0 167 C0 111.89 0 56.78 0 0 Z " fill="#89D8FE" transform="translate(256,310)"/>
</svg>
